<svg xmlns="http://www.w3.org/2000/svg" xmlns:xlink="http://www.w3.org/1999/xlink" contentStyleType="text/css" height="642px" preserveAspectRatio="none" style="width:1605px;height:642px;background:#FFFFFF;" version="1.1" viewBox="0 0 1605 642" width="1605px" zoomAndPan="magnify"><defs/><g><!--cluster 91e3a7ff9f5676ed6ae6fcd8a6b455ec--><g id="cluster_91e3a7ff9f5676ed6ae6fcd8a6b455ec"><polygon fill="none" points="16,16,26,6,466,6,466,524.37,456,534.37,16,534.37,16,16" style="stroke:#181818;stroke-width:1.0;"/><line style="stroke:#181818;stroke-width:1.0;" x1="456" x2="466" y1="16" y2="6"/><line style="stroke:#181818;stroke-width:1.0;" x1="16" x2="456" y1="16" y2="16"/><line style="stroke:#181818;stroke-width:1.0;" x1="456" x2="456" y1="16" y2="534.37"/><text fill="#000000" font-family="sans-serif" font-size="14" font-weight="bold" lengthAdjust="spacing" textLength="71" x="201.5" y="31.9951">Collector</text></g><!--cluster 8023fd004cfc913c1861d4f1c73b32e4--><g id="cluster_8023fd004cfc913c1861d4f1c73b32e4"><polygon fill="none" points="561,16,571,6,1021,6,1021,276.63,1011,286.63,561,286.63,561,16" style="stroke:#181818;stroke-width:1.0;"/><line style="stroke:#181818;stroke-width:1.0;" x1="1011" x2="1021" y1="16" y2="6"/><line style="stroke:#181818;stroke-width:1.0;" x1="561" x2="1011" y1="16" y2="16"/><line style="stroke:#181818;stroke-width:1.0;" x1="1011" x2="1011" y1="16" y2="286.63"/><text fill="#000000" font-family="sans-serif" font-size="14" font-weight="bold" lengthAdjust="spacing" textLength="129" x="722.5" y="31.9951">Jaeger-all-in-one</text></g><!--cluster f08f600c056513252ab59d5dee42db2a--><g id="cluster_f08f600c056513252ab59d5dee42db2a"><path d="M1142.5,19.15 L1196.5,19.15 A3.75,3.75 0 0 1 1199,21.65 L1206,41.4469 L1352.5,41.4469 A2.5,2.5 0 0 1 1355,43.9469 L1355,294.58 A2.5,2.5 0 0 1 1352.5,297.08 L1142.5,297.08 A2.5,2.5 0 0 1 1140,294.58 L1140,21.65 A2.5,2.5 0 0 1 1142.5,19.15 " fill="none" style="stroke:#000000;stroke-width:1.5;"/><line style="stroke:#000000;stroke-width:1.5;" x1="1140" x2="1206" y1="41.4469" y2="41.4469"/><text fill="#000000" font-family="sans-serif" font-size="14" font-weight="bold" lengthAdjust="spacing" textLength="53" x="1144" y="34.1451">pages/</text></g><!--cluster e140792f8ba7aaac250f6b625b4a0596--><g id="cluster_e140792f8ba7aaac250f6b625b4a0596"><path d="M1381.5,19.15 L1585.5,19.15 A3.75,3.75 0 0 1 1588,21.65 L1595,41.4469 L1595.5,41.4469 A2.5,2.5 0 0 1 1598,43.9469 L1598,146.54 A2.5,2.5 0 0 1 1595.5,149.04 L1381.5,149.04 A2.5,2.5 0 0 1 1379,146.54 L1379,21.65 A2.5,2.5 0 0 1 1381.5,19.15 " fill="none" style="stroke:#000000;stroke-width:1.5;"/><line style="stroke:#000000;stroke-width:1.5;" x1="1379" x2="1595" y1="41.4469" y2="41.4469"/><text fill="#000000" font-family="sans-serif" font-size="14" font-weight="bold" lengthAdjust="spacing" textLength="203" x="1383" y="34.1451">instrumentation_example/</text></g><!--entity 31faba5a4cb417e818113e2952f6a650--><g id="elem_31faba5a4cb417e818113e2952f6a650"><rect fill="#F1F1F1" height="95.1875" rx="2.5" ry="2.5" style="stroke:#181818;stroke-width:0.5;" width="417" x="32.5" y="46"/><rect fill="#F1F1F1" height="10" style="stroke:#181818;stroke-width:0.5;" width="15" x="429.5" y="51"/><rect fill="#F1F1F1" height="2" style="stroke:#181818;stroke-width:0.5;" width="4" x="427.5" y="53"/><rect fill="#F1F1F1" height="2" style="stroke:#181818;stroke-width:0.5;" width="4" x="427.5" y="57"/><text fill="#000000" font-family="sans-serif" font-size="14" font-weight="bold" lengthAdjust="spacing" textLength="69" x="47.5" y="78.9951">collector</text><text fill="#000000" font-family="sans-serif" font-size="14" lengthAdjust="spacing" textLength="4" x="47.5" y="95.292">&#160;</text><text fill="#000000" font-family="sans-serif" font-size="14" lengthAdjust="spacing" textLength="377" x="47.5" y="111.5889">image: omnition/opentelemetry-collector-contrib:latest</text><text fill="#000000" font-family="sans-serif" font-size="14" lengthAdjust="spacing" textLength="4" x="47.5" y="127.8857">&#160;</text></g><!--entity 70d609aafb1688d93ed365624b952108--><g id="elem_70d609aafb1688d93ed365624b952108"><ellipse cx="363" cy="241.63" fill="#F1F1F1" rx="8" ry="8" style="stroke:#181818;stroke-width:0.5;"/><text fill="#000000" font-family="sans-serif" font-size="14" lengthAdjust="spacing" textLength="45" x="340.5" y="271.6251">55678</text></g><!--entity 5575af0da11506ab755017c96b8cb0e7--><g id="elem_5575af0da11506ab755017c96b8cb0e7"><rect fill="#F1F1F1" height="39.2969" rx="2.5" ry="2.5" style="stroke:#181818;stroke-width:0.5;" width="211" x="135.5" y="479.08"/><polygon fill="#F1F1F1" points="329.5,484.08,329.5,498.08,341.5,498.08,341.5,490.08,335.5,484.08,329.5,484.08" style="stroke:#181818;stroke-width:0.5;"/><line style="stroke:#181818;stroke-width:0.5;" x1="335.5" x2="335.5" y1="484.08" y2="490.08"/><line style="stroke:#181818;stroke-width:0.5;" x1="341.5" x2="335.5" y1="490.08" y2="490.08"/><text fill="#000000" font-family="sans-serif" font-size="14" lengthAdjust="spacing" textLength="181" x="145.5" y="505.0751">/conf/collector-config.yaml</text></g><!--entity c14b75c7d383dd6be1710bbc9c85112a--><g id="elem_c14b75c7d383dd6be1710bbc9c85112a"><rect fill="#F1F1F1" height="95.1875" rx="2.5" ry="2.5" style="stroke:#181818;stroke-width:0.5;" width="292" x="642" y="46"/><rect fill="#F1F1F1" height="10" style="stroke:#181818;stroke-width:0.5;" width="15" x="914" y="51"/><rect fill="#F1F1F1" height="2" style="stroke:#181818;stroke-width:0.5;" width="4" x="912" y="53"/><rect fill="#F1F1F1" height="2" style="stroke:#181818;stroke-width:0.5;" width="4" x="912" y="57"/><text fill="#000000" font-family="sans-serif" font-size="14" font-weight="bold" lengthAdjust="spacing" textLength="129" x="657" y="78.9951">jaeger-all-in-one</text><text fill="#000000" font-family="sans-serif" font-size="14" lengthAdjust="spacing" textLength="4" x="657" y="95.292">&#160;</text><text fill="#000000" font-family="sans-serif" font-size="14" lengthAdjust="spacing" textLength="252" x="657" y="111.5889">image: jaegertracing/all-in-one:latest</text><text fill="#000000" font-family="sans-serif" font-size="14" lengthAdjust="spacing" textLength="4" x="657" y="127.8857">&#160;</text></g><!--entity 2927b9a1de6837b60ee1926011483be0--><g id="elem_2927b9a1de6837b60ee1926011483be0"><ellipse cx="607" cy="241.63" fill="#F1F1F1" rx="8" ry="8" style="stroke:#181818;stroke-width:0.5;"/><text fill="#000000" font-family="sans-serif" font-size="14" lengthAdjust="spacing" textLength="45" x="584.5" y="271.6251">16686</text></g><!--entity 6d1164a3e5ba9bb0e6a88f9ca0c06a92--><g id="elem_6d1164a3e5ba9bb0e6a88f9ca0c06a92"><ellipse cx="699" cy="241.63" fill="#F1F1F1" rx="8" ry="8" style="stroke:#181818;stroke-width:0.5;"/><text fill="#000000" font-family="sans-serif" font-size="14" lengthAdjust="spacing" textLength="36" x="681" y="271.6251">6831</text></g><!--entity be14cc1de7bdfc10b62e43caff30995e--><g id="elem_be14cc1de7bdfc10b62e43caff30995e"><ellipse cx="788" cy="241.63" fill="#F1F1F1" rx="8" ry="8" style="stroke:#181818;stroke-width:0.5;"/><text fill="#000000" font-family="sans-serif" font-size="14" lengthAdjust="spacing" textLength="36" x="770" y="271.6251">6832</text></g><!--entity 8de11fc9ca30f53c00d763f62a824df4--><g id="elem_8de11fc9ca30f53c00d763f62a824df4"><ellipse cx="880" cy="241.63" fill="#F1F1F1" rx="8" ry="8" style="stroke:#181818;stroke-width:0.5;"/><text fill="#000000" font-family="sans-serif" font-size="14" lengthAdjust="spacing" textLength="45" x="857.5" y="271.6251">14268</text></g><!--entity b813b6bb44bb45c5f7bc4919392cde6e--><g id="elem_b813b6bb44bb45c5f7bc4919392cde6e"><ellipse cx="975" cy="241.63" fill="#F1F1F1" rx="8" ry="8" style="stroke:#181818;stroke-width:0.5;"/><text fill="#000000" font-family="sans-serif" font-size="14" lengthAdjust="spacing" textLength="45" x="952.5" y="271.6251">14250</text></g><!--entity c81dbfa9525a0d9e507308b1eebfae6d--><g id="elem_c81dbfa9525a0d9e507308b1eebfae6d"><rect fill="#F1F1F1" height="78.8906" rx="2.5" ry="2.5" style="stroke:#181818;stroke-width:0.5;" width="70" x="1156" y="54.15"/><rect fill="#F1F1F1" height="10" style="stroke:#181818;stroke-width:0.5;" width="15" x="1206" y="59.15"/><rect fill="#F1F1F1" height="2" style="stroke:#181818;stroke-width:0.5;" width="4" x="1204" y="61.15"/><rect fill="#F1F1F1" height="2" style="stroke:#181818;stroke-width:0.5;" width="4" x="1204" y="65.15"/><text fill="#000000" font-family="sans-serif" font-size="14" font-weight="bold" lengthAdjust="spacing" textLength="30" x="1171" y="87.1451">urls</text><text fill="#000000" font-family="sans-serif" font-size="14" lengthAdjust="spacing" textLength="4" x="1171" y="103.442">&#160;</text><text fill="#000000" font-family="sans-serif" font-size="14" lengthAdjust="spacing" textLength="4" x="1171" y="119.7389">&#160;</text></g><!--entity 81d9724770f8ee1319827c6c10fe48de--><g id="elem_81d9724770f8ee1319827c6c10fe48de"><rect fill="#F1F1F1" height="78.8906" rx="2.5" ry="2.5" style="stroke:#181818;stroke-width:0.5;" width="86" x="1156" y="202.19"/><rect fill="#F1F1F1" height="10" style="stroke:#181818;stroke-width:0.5;" width="15" x="1222" y="207.19"/><rect fill="#F1F1F1" height="2" style="stroke:#181818;stroke-width:0.5;" width="4" x="1220" y="209.19"/><rect fill="#F1F1F1" height="2" style="stroke:#181818;stroke-width:0.5;" width="4" x="1220" y="213.19"/><text fill="#000000" font-family="sans-serif" font-size="14" font-weight="bold" lengthAdjust="spacing" textLength="46" x="1171" y="235.1851">views</text><text fill="#000000" font-family="sans-serif" font-size="14" lengthAdjust="spacing" textLength="4" x="1171" y="251.482">&#160;</text><text fill="#000000" font-family="sans-serif" font-size="14" lengthAdjust="spacing" textLength="4" x="1171" y="267.7789">&#160;</text></g><!--entity 4388af5b4e024440d8eb2ab5acf5f603--><g id="elem_4388af5b4e024440d8eb2ab5acf5f603"><rect fill="#F1F1F1" height="78.8906" rx="2.5" ry="2.5" style="stroke:#181818;stroke-width:0.5;" width="78" x="1261" y="54.15"/><rect fill="#F1F1F1" height="10" style="stroke:#181818;stroke-width:0.5;" width="15" x="1319" y="59.15"/><rect fill="#F1F1F1" height="2" style="stroke:#181818;stroke-width:0.5;" width="4" x="1317" y="61.15"/><rect fill="#F1F1F1" height="2" style="stroke:#181818;stroke-width:0.5;" width="4" x="1317" y="65.15"/><text fill="#000000" font-family="sans-serif" font-size="14" font-weight="bold" lengthAdjust="spacing" textLength="38" x="1276" y="87.1451">apps</text><text fill="#000000" font-family="sans-serif" font-size="14" lengthAdjust="spacing" textLength="4" x="1276" y="103.442">&#160;</text><text fill="#000000" font-family="sans-serif" font-size="14" lengthAdjust="spacing" textLength="4" x="1276" y="119.7389">&#160;</text></g><!--entity 5a380003765c51ecb486210532c9ca09--><g id="elem_5a380003765c51ecb486210532c9ca09"><rect fill="#F1F1F1" height="78.8906" rx="2.5" ry="2.5" style="stroke:#181818;stroke-width:0.5;" width="70" x="1453" y="54.15"/><rect fill="#F1F1F1" height="10" style="stroke:#181818;stroke-width:0.5;" width="15" x="1503" y="59.15"/><rect fill="#F1F1F1" height="2" style="stroke:#181818;stroke-width:0.5;" width="4" x="1501" y="61.15"/><rect fill="#F1F1F1" height="2" style="stroke:#181818;stroke-width:0.5;" width="4" x="1501" y="65.15"/><text fill="#000000" font-family="sans-serif" font-size="14" font-weight="bold" lengthAdjust="spacing" textLength="30" x="1468" y="87.1451">urls</text><text fill="#000000" font-family="sans-serif" font-size="14" lengthAdjust="spacing" textLength="4" x="1468" y="103.442">&#160;</text><text fill="#000000" font-family="sans-serif" font-size="14" lengthAdjust="spacing" textLength="4" x="1468" y="119.7389">&#160;</text></g><!--entity a6de8515b50bfb5fde33223b1dd25858--><g id="elem_a6de8515b50bfb5fde33223b1dd25858"><ellipse cx="512" cy="389.08" fill="#F1F1F1" rx="8" ry="8" style="stroke:#181818;stroke-width:0.5;"/><text fill="#000000" font-family="sans-serif" font-size="14" lengthAdjust="spacing" textLength="45" x="489.5" y="419.0751">55678</text></g><!--entity dc5127e3f4a9bf138976051250341546--><g id="elem_dc5127e3f4a9bf138976051250341546"><ellipse cx="607" cy="389.08" fill="#F1F1F1" rx="8" ry="8" style="stroke:#181818;stroke-width:0.5;"/><text fill="#000000" font-family="sans-serif" font-size="14" lengthAdjust="spacing" textLength="45" x="584.5" y="419.0751">16686</text></g><!--entity 5ec7529891d8bcecc15ce56f77ffc1a5--><g id="elem_5ec7529891d8bcecc15ce56f77ffc1a5"><ellipse cx="699" cy="389.08" fill="#F1F1F1" rx="8" ry="8" style="stroke:#181818;stroke-width:0.5;"/><text fill="#000000" font-family="sans-serif" font-size="14" lengthAdjust="spacing" textLength="36" x="681" y="419.0751">6831</text></g><!--entity 0e5eaa5e6584a2653e700120ca8b3802--><g id="elem_0e5eaa5e6584a2653e700120ca8b3802"><ellipse cx="788" cy="389.08" fill="#F1F1F1" rx="8" ry="8" style="stroke:#181818;stroke-width:0.5;"/><text fill="#000000" font-family="sans-serif" font-size="14" lengthAdjust="spacing" textLength="36" x="770" y="419.0751">6832</text></g><!--entity 983861d542d4a14e14ac1907b72f5e3f--><g id="elem_983861d542d4a14e14ac1907b72f5e3f"><ellipse cx="880" cy="389.08" fill="#F1F1F1" rx="8" ry="8" style="stroke:#181818;stroke-width:0.5;"/><text fill="#000000" font-family="sans-serif" font-size="14" lengthAdjust="spacing" textLength="45" x="857.5" y="419.0751">14268</text></g><!--entity c26566cba8fccfe4d5ebe838617e0910--><g id="elem_c26566cba8fccfe4d5ebe838617e0910"><ellipse cx="975" cy="389.08" fill="#F1F1F1" rx="8" ry="8" style="stroke:#181818;stroke-width:0.5;"/><text fill="#000000" font-family="sans-serif" font-size="14" lengthAdjust="spacing" textLength="45" x="952.5" y="419.0751">14250</text></g><!--entity 99a9a28837ab0a0c9f76d5814dea36c7--><g id="elem_99a9a28837ab0a0c9f76d5814dea36c7"><rect fill="#F1F1F1" height="39.2969" rx="2.5" ry="2.5" style="stroke:#181818;stroke-width:0.5;" width="180" x="151" y="597.37"/><polygon fill="#F1F1F1" points="314,602.37,314,616.37,326,616.37,326,608.37,320,602.37,314,602.37" style="stroke:#181818;stroke-width:0.5;"/><line style="stroke:#181818;stroke-width:0.5;" x1="320" x2="320" y1="602.37" y2="608.37"/><line style="stroke:#181818;stroke-width:0.5;" x1="326" x2="320" y1="608.37" y2="608.37"/><text fill="#000000" font-family="sans-serif" font-size="14" lengthAdjust="spacing" textLength="150" x="161" y="623.3651">./collector-config.yaml</text></g><!--entity 754a022b5e103af3894dc2bf7ca62fa1--><g id="elem_754a022b5e103af3894dc2bf7ca62fa1"><rect fill="#F1F1F1" height="78.8906" rx="2.5" ry="2.5" style="stroke:#181818;stroke-width:0.5;" width="83" x="1037.5" y="54.15"/><rect fill="#F1F1F1" height="10" style="stroke:#181818;stroke-width:0.5;" width="15" x="1100.5" y="59.15"/><rect fill="#F1F1F1" height="2" style="stroke:#181818;stroke-width:0.5;" width="4" x="1098.5" y="61.15"/><rect fill="#F1F1F1" height="2" style="stroke:#181818;stroke-width:0.5;" width="4" x="1098.5" y="65.15"/><text fill="#000000" font-family="sans-serif" font-size="14" font-weight="bold" lengthAdjust="spacing" textLength="43" x="1052.5" y="87.1451">client</text><text fill="#000000" font-family="sans-serif" font-size="14" lengthAdjust="spacing" textLength="4" x="1052.5" y="103.442">&#160;</text><text fill="#000000" font-family="sans-serif" font-size="14" lengthAdjust="spacing" textLength="4" x="1052.5" y="119.7389">&#160;</text></g><!--link 31faba5a4cb417e818113e2952f6a650 to 70d609aafb1688d93ed365624b952108--><g id="link_31faba5a4cb417e818113e2952f6a650_70d609aafb1688d93ed365624b952108"><path codeLine="32" d="M280.27,141.6 C307.86,174.62 342.26,215.8 356.43,232.77 " fill="none" id="31faba5a4cb417e818113e2952f6a650-70d609aafb1688d93ed365624b952108" style="stroke:#181818;stroke-width:1.0;"/></g><!--link 70d609aafb1688d93ed365624b952108 to a6de8515b50bfb5fde33223b1dd25858--><g id="link_70d609aafb1688d93ed365624b952108_a6de8515b50bfb5fde33223b1dd25858"><path codeLine="33" d="M371.01,250.45 C396.88,275.7 478.02,354.91 503.95,380.22 " fill="none" id="70d609aafb1688d93ed365624b952108-a6de8515b50bfb5fde33223b1dd25858" style="stroke:#181818;stroke-width:1.0;"/></g><!--link 5575af0da11506ab755017c96b8cb0e7 to 99a9a28837ab0a0c9f76d5814dea36c7--><g id="link_5575af0da11506ab755017c96b8cb0e7_99a9a28837ab0a0c9f76d5814dea36c7"><path codeLine="34" d="M241,518.67 C241,540.29 241,575.46 241,597.09 " fill="none" id="5575af0da11506ab755017c96b8cb0e7-99a9a28837ab0a0c9f76d5814dea36c7" style="stroke:#181818;stroke-width:1.0;"/><text fill="#000000" font-family="sans-serif" font-size="13" lengthAdjust="spacing" textLength="14" x="242" y="563.4369">rw</text></g><!--link 31faba5a4cb417e818113e2952f6a650 to 5575af0da11506ab755017c96b8cb0e7--><g id="link_31faba5a4cb417e818113e2952f6a650_5575af0da11506ab755017c96b8cb0e7"><path codeLine="35" d="M241,141.63 C241,230.31 241,412.75 241,472.87 " fill="none" id="31faba5a4cb417e818113e2952f6a650-to-5575af0da11506ab755017c96b8cb0e7" style="stroke:#181818;stroke-width:1.0;stroke-dasharray:7.0,7.0;"/><polygon fill="#181818" points="241,478.87,245,469.87,241,473.87,237,469.87,241,478.87" style="stroke:#181818;stroke-width:1.0;"/><text fill="#000000" font-family="sans-serif" font-size="13" lengthAdjust="spacing" textLength="23" x="242" y="326.1469">use</text></g><!--link c14b75c7d383dd6be1710bbc9c85112a to 2927b9a1de6837b60ee1926011483be0--><g id="link_c14b75c7d383dd6be1710bbc9c85112a_2927b9a1de6837b60ee1926011483be0"><path codeLine="36" d="M729.73,141.6 C688.19,175.12 636.22,217.05 615.81,233.52 " fill="none" id="c14b75c7d383dd6be1710bbc9c85112a-2927b9a1de6837b60ee1926011483be0" style="stroke:#181818;stroke-width:1.0;"/></g><!--link 2927b9a1de6837b60ee1926011483be0 to dc5127e3f4a9bf138976051250341546--><g id="link_2927b9a1de6837b60ee1926011483be0_dc5127e3f4a9bf138976051250341546"><path codeLine="37" d="M607,250.45 C607,275.7 607,354.91 607,380.22 " fill="none" id="2927b9a1de6837b60ee1926011483be0-dc5127e3f4a9bf138976051250341546" style="stroke:#181818;stroke-width:1.0;"/></g><!--link c14b75c7d383dd6be1710bbc9c85112a to 6d1164a3e5ba9bb0e6a88f9ca0c06a92--><g id="link_c14b75c7d383dd6be1710bbc9c85112a_6d1164a3e5ba9bb0e6a88f9ca0c06a92"><path codeLine="38" d="M759.35,141.6 C739.23,174.62 714.13,215.8 703.79,232.77 " fill="none" id="c14b75c7d383dd6be1710bbc9c85112a-6d1164a3e5ba9bb0e6a88f9ca0c06a92" style="stroke:#181818;stroke-width:1.0;"/></g><!--link 6d1164a3e5ba9bb0e6a88f9ca0c06a92 to 5ec7529891d8bcecc15ce56f77ffc1a5--><g id="link_6d1164a3e5ba9bb0e6a88f9ca0c06a92_5ec7529891d8bcecc15ce56f77ffc1a5"><path codeLine="39" d="M699,250.45 C699,275.7 699,354.91 699,380.22 " fill="none" id="6d1164a3e5ba9bb0e6a88f9ca0c06a92-5ec7529891d8bcecc15ce56f77ffc1a5" style="stroke:#181818;stroke-width:1.0;"/><text fill="#000000" font-family="sans-serif" font-size="13" lengthAdjust="spacing" textLength="24" x="700" y="326.1469">udp</text></g><!--link c14b75c7d383dd6be1710bbc9c85112a to be14cc1de7bdfc10b62e43caff30995e--><g id="link_c14b75c7d383dd6be1710bbc9c85112a_be14cc1de7bdfc10b62e43caff30995e"><path codeLine="40" d="M788,141.6 C788,174.62 788,215.8 788,232.77 " fill="none" id="c14b75c7d383dd6be1710bbc9c85112a-be14cc1de7bdfc10b62e43caff30995e" style="stroke:#181818;stroke-width:1.0;"/></g><!--link be14cc1de7bdfc10b62e43caff30995e to 0e5eaa5e6584a2653e700120ca8b3802--><g id="link_be14cc1de7bdfc10b62e43caff30995e_0e5eaa5e6584a2653e700120ca8b3802"><path codeLine="41" d="M788,250.45 C788,275.7 788,354.91 788,380.22 " fill="none" id="be14cc1de7bdfc10b62e43caff30995e-0e5eaa5e6584a2653e700120ca8b3802" style="stroke:#181818;stroke-width:1.0;"/><text fill="#000000" font-family="sans-serif" font-size="13" lengthAdjust="spacing" textLength="24" x="789" y="326.1469">udp</text></g><!--link c14b75c7d383dd6be1710bbc9c85112a to 8de11fc9ca30f53c00d763f62a824df4--><g id="link_c14b75c7d383dd6be1710bbc9c85112a_8de11fc9ca30f53c00d763f62a824df4"><path codeLine="42" d="M817.62,141.6 C838.42,174.62 864.36,215.8 875.05,232.77 " fill="none" id="c14b75c7d383dd6be1710bbc9c85112a-8de11fc9ca30f53c00d763f62a824df4" style="stroke:#181818;stroke-width:1.0;"/></g><!--link 8de11fc9ca30f53c00d763f62a824df4 to 983861d542d4a14e14ac1907b72f5e3f--><g id="link_8de11fc9ca30f53c00d763f62a824df4_983861d542d4a14e14ac1907b72f5e3f"><path codeLine="43" d="M880,250.45 C880,275.7 880,354.91 880,380.22 " fill="none" id="8de11fc9ca30f53c00d763f62a824df4-983861d542d4a14e14ac1907b72f5e3f" style="stroke:#181818;stroke-width:1.0;"/></g><!--link c14b75c7d383dd6be1710bbc9c85112a to b813b6bb44bb45c5f7bc4919392cde6e--><g id="link_c14b75c7d383dd6be1710bbc9c85112a_b813b6bb44bb45c5f7bc4919392cde6e"><path codeLine="44" d="M849.99,141.59 C874.43,160.29 902.66,182.09 928,202.19 C941.38,212.8 956.65,225.37 966.06,233.18 " fill="none" id="c14b75c7d383dd6be1710bbc9c85112a-b813b6bb44bb45c5f7bc4919392cde6e" style="stroke:#181818;stroke-width:1.0;"/></g><!--link b813b6bb44bb45c5f7bc4919392cde6e to c26566cba8fccfe4d5ebe838617e0910--><g id="link_b813b6bb44bb45c5f7bc4919392cde6e_c26566cba8fccfe4d5ebe838617e0910"><path codeLine="45" d="M975,250.45 C975,275.7 975,354.91 975,380.22 " fill="none" id="b813b6bb44bb45c5f7bc4919392cde6e-c26566cba8fccfe4d5ebe838617e0910" style="stroke:#181818;stroke-width:1.0;"/></g><!--link c81dbfa9525a0d9e507308b1eebfae6d to 81d9724770f8ee1319827c6c10fe48de--><g id="link_c81dbfa9525a0d9e507308b1eebfae6d_81d9724770f8ee1319827c6c10fe48de"><path codeLine="75" d="M1193.12,133.34 C1194.28,154.47 1195.3816,174.549 1196.5416,195.709 " fill="none" id="c81dbfa9525a0d9e507308b1eebfae6d-to-81d9724770f8ee1319827c6c10fe48de" style="stroke:#181818;stroke-width:1.0;"/><polygon fill="#181818" points="1196.87,201.7,1200.3714,192.4945,1196.5963,196.7075,1192.3834,192.9324,1196.87,201.7" style="stroke:#181818;stroke-width:1.0;"/></g><!--SRC=[bLRBRYit3DtFLmoyQWFO4IMHahAuc-xw2qLHK18LJ3j-m7QQUt6HVoyzRfeu1QfqOSCO7nxn73uqFC_xv-tqTTez3hjzbN7rqtwUfPptnzN8fp61E0wjfOOKI2gnK2irCcMFA6NyFenblptiTx8xZmuQPqRs9Ni84Y42EB49RICcDEClmzrTUJtWxcuOfYq_oiEut-wcyxJVtUyFoYEpRELy_BR-1wg_TkVZb1zcFilfF0o_3Z_yEAvGaufBdi5KCecvPQ0OQt9I7I5Pd_LmC77WutbgNCxZwbwvslqDTPiUDzzuEozKY06vcSe0Q8XpG3GGIg8SIpOIXfU_dVgPvL6EQvxdzRHRgmDBU3JMjMgCBwqaS0KYGVKDId3PMV6tZXNmUa09rKLNAsM102Rdaaf40CkBOxz_FEYTSzV_paSkMiBxDyW7fu0eqfAVJJRan525eWkPZ0WaImR0HvV5B73z2nOqLG3ox0GpfwpoYMDigR0fwasohsYxe3LzNufIXrnRKI6aWbtXrfn92UMQYhTqBLgi0g0k5NQceIl6r42kaULeVMt-5OxcoXx1PShPU_rWmHPoyGcIIxQe6j72t3O5KnMr4JEQt3AsAivPwpBKQZ5Y_E1CBGWsY6jUfJPmCGKo-WYDyu2URftHvWzeKqnGOowYih48KWiwBGKORvqnWiACGXWzMq8dmHYmfd3CJblcWpCfkalReBVLCtYrbGia4tAm3JN33yuKPIGgcMChfOclA5aMYY0cWNdN_Pl_wFoKEB6DsXQSZLOujK0L8_WgxAY4eJlVwxhkZs8FiB1qQzSRquMbfsXy65V7vrLVs6PJDviltTrmuNiwoMheplKbk-uezW0BIxTjFvLBTz1xW8MbDnIBF_NmIN-wwwG7M5Xwe_V_Skhkh1xWsfUz-VwSFxs5s0CiBDtbSU3oXzuru-gWtwVxPLKq4niPBJqIWhDeEMEgM4LKKjRylW_lBha8DJVMQK8sDGcQu4pC8A9FXUfooJqTvzFbNjCBworI0rEmFWJJelQ-WnHjAAIbraJLwINopqcU_ntgNOpSC7inrdjlQfHyoP9BGqtTBQ5yEBn6lhpfd7Qdy_5fgonyUIdvJRxozZ3BLRdMoeHaMymScBded3NInjEJs62Y6-N8sc76k43gFeXkbqYwuj3PIuEOz57voxlOW4feRKO1uxZfNFjQR6wXCDd6S7sPcYV5lehl-Qpb_jBrz2y0]--></g></svg>